<?xml version="1.0" encoding="utf-8"?>
<!-- Generator: Adobe Illustrator 19.2.0, SVG Export Plug-In . SVG Version: 6.00 Build 0)  -->
<svg version="1.1" id="Layer_1" xmlns="http://www.w3.org/2000/svg" xmlns:xlink="http://www.w3.org/1999/xlink" x="0px" y="0px"
	 width="20px" height="20px" viewBox="0 0 20 20" style="enable-background:new 0 0 20 20;" xml:space="preserve">
<style type="text/css">
	.st0{fill:#10181F;}
</style>
<path class="st0" d="M10,0C4.545,0,0,4.444,0,10s4.444,10,10,10s10-4.444,10-10C20,4.545,15.556,0,10,0z M18.182,9.495
	c-2.121-0.303-4.141-0.404-5.859-0.101c-0.202-0.505-0.404-0.909-0.606-1.414c1.919-0.808,3.434-1.919,4.646-3.434
	C17.374,6.061,18.081,7.677,18.182,9.495z M15.051,3.535c-1.01,1.313-2.424,2.323-4.141,3.03C10.101,5.05,9.091,3.535,7.98,2.02
	C8.687,1.919,9.293,1.818,10,1.818C11.919,1.818,13.636,2.424,15.051,3.535L15.051,3.535z M6.364,2.626
	C7.475,4.04,8.485,5.556,9.293,7.071C7.273,7.677,4.848,7.98,2.121,7.98C2.626,5.657,4.242,3.737,6.364,2.626z M1.818,10
	c0-0.101,0-0.101,0-0.202c3.232,0,5.96-0.404,8.283-1.111c0.202,0.404,0.404,0.808,0.505,1.212
	c-2.828,0.909-5.152,2.626-6.869,5.354C2.525,13.838,1.818,12.02,1.818,10z M4.949,16.465c1.616-2.525,3.737-4.242,6.263-5.051
	c0.808,2.02,1.313,4.04,1.717,6.162C12.02,17.98,11.01,18.182,10,18.182C8.081,18.182,6.364,17.576,4.949,16.465z M14.545,16.869
	c-0.404-1.919-0.909-3.838-1.616-5.758c1.515-0.202,3.232-0.202,5.152,0.202C17.778,13.636,16.465,15.556,14.545,16.869z"/>
</svg>
