<?xml version="1.0" encoding="utf-8"?>
<!-- Generator: Adobe Illustrator 19.2.0, SVG Export Plug-In . SVG Version: 6.00 Build 0)  -->
<svg version="1.1" id="Layer_1" xmlns="http://www.w3.org/2000/svg" xmlns:xlink="http://www.w3.org/1999/xlink" x="0px" y="0px"
	 width="25px" height="20px" viewBox="0 0 25 20" style="enable-background:new 0 0 25 20;" xml:space="preserve">
<style type="text/css">
	.st0{fill:#10181F;}
</style>
<path id="twitter-icon" class="st0" d="M24.893,2.454c-0.859,0.368-1.84,0.613-2.945,0.736c0.982-0.613,1.84-1.595,2.209-2.822
	c-0.982,0.613-2.086,0.982-3.19,1.227C20.107,0.613,18.758,0,17.285,0c-3.313,0-5.644,3.067-4.908,6.135
	C8.206,5.89,4.525,3.926,1.948,0.859c-1.35,2.209-0.736,5.276,1.595,6.748c-0.859,0-1.595-0.245-2.331-0.613
	c0,2.331,1.595,4.54,4.049,5.031c-0.736,0.245-1.472,0.245-2.331,0.123c0.613,1.963,2.454,3.436,4.663,3.558
	c-2.086,1.718-4.785,2.454-7.485,2.086C2.316,19.264,5.015,20,7.837,20c9.325,0,14.601-7.853,14.356-14.969
	C23.42,4.417,24.279,3.558,24.893,2.454z"/>
</svg>
