<?xml version="1.0" encoding="utf-8"?><svg width="65" height="60" viewBox="0 0 65 60" xmlns="http://www.w3.org/2000/svg" xmlns:xlink="http://www.w3.org/1999/xlink"><svg id="dribbble" width="30" height="30" viewBox="-5 -5 30 30" x="35"><style>.ast0{fill:#10181f}</style><path class="ast0" d="M10 0C4.545 0 0 4.444 0 10s4.444 10 10 10 10-4.444 10-10c0-5.455-4.444-10-10-10zm8.182 9.495c-2.121-.303-4.141-.404-5.859-.101-.202-.505-.404-.909-.606-1.414 1.919-.808 3.434-1.919 4.646-3.434 1.011 1.515 1.718 3.131 1.819 4.949zm-3.131-5.96c-1.01 1.313-2.424 2.323-4.141 3.03-.809-1.515-1.819-3.03-2.93-4.545.707-.101 1.313-.202 2.02-.202 1.919 0 3.636.606 5.051 1.717zm-8.687-.909c1.111 1.414 2.121 2.93 2.929 4.445-2.02.606-4.445.909-7.172.909.505-2.323 2.121-4.243 4.243-5.354zM1.818 10v-.202c3.232 0 5.96-.404 8.283-1.111.202.404.404.808.505 1.212-2.828.909-5.152 2.626-6.869 5.354C2.525 13.838 1.818 12.02 1.818 10zm3.131 6.465c1.616-2.525 3.737-4.242 6.263-5.051.808 2.02 1.313 4.04 1.717 6.162a7.245 7.245 0 0 1-2.929.606c-1.919 0-3.636-.606-5.051-1.717zm9.596.404c-.404-1.919-.909-3.838-1.616-5.758a15.08 15.08 0 0 1 5.152.202c-.303 2.323-1.616 4.243-3.536 5.556z"/></svg><svg id="github" width="30" height="30" viewBox="-5 -5 30 30" y="30"><style>.bst0{fill-rule:evenodd;clip-rule:evenodd;fill:#11181f}</style><path class="bst0" d="M9.999.247C4.478.247 0 4.724 0 10.248c0 4.418 2.865 8.166 6.839 9.488.5.092.683-.217.683-.482 0-.237-.009-.866-.014-1.701-2.782.604-3.369-1.34-3.369-1.34-.455-1.155-1.11-1.463-1.11-1.463-.908-.62.069-.608.069-.608 1.004.071 1.532 1.031 1.532 1.031.892 1.528 2.34 1.087 2.91.831.091-.646.349-1.087.635-1.337-2.221-.252-4.555-1.11-4.555-4.942 0-1.092.39-1.984 1.029-2.683-.103-.253-.446-1.27.098-2.646 0 0 .84-.269 2.75 1.025a9.578 9.578 0 0 1 2.504-.337 9.595 9.595 0 0 1 2.504.337c1.909-1.294 2.747-1.025 2.747-1.025.546 1.377.202 2.393.1 2.646.641.699 1.028 1.592 1.028 2.683 0 3.842-2.338 4.687-4.566 4.935.359.309.679.919.679 1.852 0 1.337-.012 2.415-.012 2.743 0 .267.18.579.688.481C17.137 18.41 20 14.664 20 10.248 20 4.724 15.522.247 9.999.247z"/></svg><svg width="30" height="30" viewBox="-5 -5 30 30" id="instagram" x="30" y="30"><path d="M17.6 8.5h-1.7c.1.5.2 1 .2 1.5 0 3.4-2.7 6.1-6.1 6.1S3.9 13.4 3.9 10c0-.5.1-1 .2-1.5H2.4v8.4c0 .4.3.8.8.8h13.7c.4 0 .8-.3.8-.8l-.1-8.4zm0-5.4c0-.4-.3-.8-.8-.8h-2.3c-.4 0-.8.3-.8.8v2.3c0 .4.3.8.8.8h2.3c.4 0 .8-.3.8-.8V3.1zM10 6.2c-2.1 0-3.8 1.7-3.8 3.8s1.7 3.8 3.8 3.8 3.8-1.7 3.8-3.8-1.7-3.8-3.8-3.8zm7.6 13.7H2.4c-1.3 0-2.3-1-2.3-2.3V2.4C.1 1.1 1.1.1 2.4.1h15.2c1.3 0 2.3 1 2.3 2.3v15.2c0 1.3-1 2.3-2.3 2.3z" fill="#1b2633"/></svg><svg id="twitter" width="35" height="30" viewBox="-5 -5 35 30"><style>.dst0{fill:#10181f}</style><path id="dtwitter-icon" class="dst0" d="M24.893 2.454c-.859.368-1.84.613-2.945.736.982-.613 1.84-1.595 2.209-2.822-.982.613-2.086.982-3.19 1.227C20.107.613 18.758 0 17.285 0c-3.313 0-5.644 3.067-4.908 6.135C8.206 5.89 4.525 3.926 1.948.859c-1.35 2.209-.736 5.276 1.595 6.748-.859 0-1.595-.245-2.331-.613 0 2.331 1.595 4.54 4.049 5.031-.736.245-1.472.245-2.331.123.613 1.963 2.454 3.436 4.663 3.558-2.086 1.718-4.785 2.454-7.485 2.086C2.316 19.264 5.015 20 7.837 20c9.325 0 14.601-7.853 14.356-14.969 1.227-.614 2.086-1.473 2.7-2.577z"/></svg></svg>